<svg width="65" height="65" viewBox="0 0 65 65" fill="none" xmlns="http://www.w3.org/2000/svg">
<circle cx="32.5" cy="32.5" r="32.5" fill="#2A2A2A"/>
<circle cx="32.5" cy="32.5" r="30.5" fill="white"/>
<path fill-rule="evenodd" clip-rule="evenodd" d="M48.2846 24.9733C49.1564 27.078 49.6051 29.3338 49.6051 31.6119H46.8815C46.8496 23.5299 40.288 16.988 32.1984 16.988C24.1088 16.988 17.5472 23.5299 17.5153 31.6119H14.91C14.91 29.3338 15.3588 27.078 16.2306 24.9733C17.1023 22.8686 18.3802 20.9562 19.991 19.3454C21.6019 17.7345 23.5143 16.4567 25.619 15.5849C27.7237 14.7131 29.9795 14.2644 32.2576 14.2644C34.5357 14.2644 36.7915 14.7131 38.8962 15.5849C41.0009 16.4567 42.9133 17.7345 44.5241 19.3454C46.135 20.9562 47.4128 22.8686 48.2846 24.9733Z" fill="#2A2A2A"/>
<path d="M30.659 16.3684C30.659 15.5182 31.3482 14.829 32.1984 14.829C33.0486 14.829 33.7378 15.5182 33.7378 16.3684V50.3529H30.659V16.3684Z" fill="#2A2A2A"/>
</svg>
